<svg width="50" height="26" viewBox="0 0 50 26" fill="none" xmlns="http://www.w3.org/2000/svg">
<path d="M25.3521 9.4708L27.6667 5.43539L35.5292 4.93122L35.8042 4.43955L28.5375 3.93538L30.2458 0.989551H43.725C47.8708 0.989551 50.9333 2.47913 49.7396 6.82288C49.3854 8.15205 47.7 11.475 42.7479 12.8625C43.8042 12.9875 46.4146 14.1458 45.9562 17.1479C45.1562 22.4771 38.2687 25.0104 34.4292 25.0104L18.5104 25.0229L17.7188 21.9396L26.0625 21.3562L26.3479 20.8625L17.2937 20.3125L16.3208 16.6562L29.1917 15.9L29.4771 15.4187L6.36042 13.975L7.47292 12.0479L32.3646 10.4333L32.6521 9.95205L25.3521 9.4708ZM35.7687 10.2729L38.0604 10.2604C39.5979 10.25 41.1896 9.55205 41.775 8.13955C42.3146 6.82288 41.5917 5.69997 40.6292 5.71039H38.4062L35.7687 10.2729ZM33.1229 14.8458L30.3604 19.6479H32.9958C34.2229 19.6479 36.4125 19.0396 37.0875 17.2979C37.7167 15.6708 36.5604 14.8458 35.7583 14.8458H33.1229ZM13.0417 22.2604L11.4375 25L0 25.0208L1.1125 23.0979L13.0417 22.2604ZM13.8437 0.977051L23.0458 0.989551L23.7458 3.58955L12.7542 2.90205L13.8437 0.977051ZM24.2604 5.65413L25.2687 9.4708L9.55625 8.43955L10.6562 6.52288L24.2604 5.65413ZM16.2604 16.6562L14.2667 20.1166L3.18333 19.4875L4.29583 17.5625L16.2604 16.6562Z" fill="black"/>
</svg>
